<?xml version="1.0" encoding="utf-8"?>
<!-- Generator: Fusion 360, Shaper Origin Export Add-In, Version 1.5.0  -->
<svg enable-background="new 0 0 3 2.2" height="2.2cm" shaper:fusionaddin="version:1.5.0" version="1.1" viewBox="0 0 3 2.2" width="3cm" x="0cm" xml:space="preserve" xmlns="http://www.w3.org/2000/svg" xmlns:shaper="http://www.shapertools.com/namespaces/shaper" xmlns:xlink="http://www.w3.org/1999/xlink" y="0cm"><path d="M2.8,2 A0.2,0.2 0 0,1 2.6,2.2 L-0,2.2 A0.2,0.2 90 0,1 -0.2,2 L-0.2,0.2 A0.2,0.2 180 0,1 -0,0 L2.6,0 A0.2,0.2 270 0,1 2.8,0.2 L2.8,2z" fill="rgb(0,0,0)" shaper:cutDepth="0.004" shaper:pathType="exterior" transform="matrix(1,0,0,-1,0.2,2.2)" vector-effect="non-scaling-stroke" /><path d="M1.43333,1.1 a0.25,0.25 0 1,1 0.5,0 a0.25,0.25 0 1,1 -0.5,0z" fill="rgb(162,162,162)" fill-rule="nonzero" shaper:cutDepth="0.0025" shaper:pathType="hogging" transform="matrix(1,0,0,-1,0.2,2.2)" vector-effect="non-scaling-stroke" /><path d="M0.66667,1.1 a0.25,0.25 0 1,1 0.5,0 a0.25,0.25 0 1,1 -0.5,0z" fill="rgb(162,162,162)" fill-rule="nonzero" shaper:cutDepth="0.0025" shaper:pathType="hogging" transform="matrix(1,0,0,-1,0.2,2.2)" vector-effect="non-scaling-stroke" /><path d="M2.199996,1.1 a0.25,0.25 0 1,1 0.5,0 a0.25,0.25 0 1,1 -0.5,0z" fill="rgb(162,162,162)" fill-rule="nonzero" shaper:cutDepth="0.0025" shaper:pathType="hogging" transform="matrix(1,0,0,-1,0.2,2.2)" vector-effect="non-scaling-stroke" /><path d="M-0.0999966,1.1 a0.25,0.25 0 1,1 0.5,0 a0.25,0.25 0 1,1 -0.5,0z" fill="rgb(162,162,162)" fill-rule="nonzero" shaper:cutDepth="0.0025" shaper:pathType="hogging" transform="matrix(1,0,0,-1,0.2,2.2)" vector-effect="non-scaling-stroke" /></svg>