<?xml version="1.0" encoding="utf-8"?>
<!-- Generator: Fusion 360, Shaper Origin Export Add-In, Version 1.5.0  -->
<svg enable-background="new 0 0 8.5 3.3105891" height="3.3105891cm" shaper:fusionaddin="version:1.5.0" version="1.1" viewBox="0 0 8.5 3.3105891" width="8.5cm" x="0cm" xml:space="preserve" xmlns="http://www.w3.org/2000/svg" xmlns:shaper="http://www.shapertools.com/namespaces/shaper" xmlns:xlink="http://www.w3.org/1999/xlink" y="0cm"><path d="M4,0.7795898 A0.1,0.1 180 0,0 4.0714286,0.8754213 A0.25,0.25 286.6015496 1,1 3.7604213,1.1864286 A0.1,0.1 343.3984504 0,0 3.6645898,1.115 L1.3888883,1.115 A0.4,0.4 270 0,0 1.1185838,1.2201518 A1.6552946,1.6552946 47.4867107 0,1 -1.1185838,1.2201518 A0.4,0.4 312.5132893 0,0 -1.3888883,1.115 L-3.6645898,1.115 A0.1,0.1 270 0,0 -3.7604213,1.1864286 A0.25,0.25 16.6015496 1,1 -4.0714286,0.8754213 A0.1,0.1 73.3984504 0,0 -4,0.7795898 L-4,-0.7795898 A0.1,0.1 0 0,0 -4.0714286,-0.8754213 A0.25,0.25 106.6015496 1,1 -3.7604213,-1.1864286 A0.1,0.1 163.3984504 0,0 -3.6645898,-1.115 L-1.3888883,-1.115 A0.4,0.4 90 0,0 -1.1185838,-1.2201518 A1.6552946,1.6552946 227.4867107 0,1 1.1185838,-1.2201518 A0.4,0.4 132.5132893 0,0 1.3888883,-1.115 L3.6645898,-1.115 A0.1,0.1 90 0,0 3.7604213,-1.1864286 A0.25,0.25 196.6015496 1,1 4.0714286,-0.8754213 A0.1,0.1 253.3984504 0,0 4,-0.7795898 L4,0.7795898z" fill="rgb(0,0,0)" shaper:cutDepth="0" shaper:pathType="exterior" transform="matrix(1,0,0,-1,4.25,1.6552946)" vector-effect="non-scaling-stroke" /><path d="M-3.185,0.795 a0.065,0.065 0 1,1 0.13,0 a0.065,0.065 0 1,1 -0.13,0z" fill="rgb(255,255,255)" shaper:cutDepth="0" shaper:pathType="interior" stroke="rgb(0,0,0)" transform="matrix(1,0,0,-1,4.25,1.6552946)" vector-effect="non-scaling-stroke" /><path d="M-2.931,0.795 a0.065,0.065 0 1,1 0.13,0 a0.065,0.065 0 1,1 -0.13,0z" fill="rgb(255,255,255)" shaper:cutDepth="0" shaper:pathType="interior" stroke="rgb(0,0,0)" transform="matrix(1,0,0,-1,4.25,1.6552946)" vector-effect="non-scaling-stroke" /><path d="M-2.677,0.795 a0.065,0.065 0 1,1 0.13,0 a0.065,0.065 0 1,1 -0.13,0z" fill="rgb(255,255,255)" shaper:cutDepth="0" shaper:pathType="interior" stroke="rgb(0,0,0)" transform="matrix(1,0,0,-1,4.25,1.6552946)" vector-effect="non-scaling-stroke" /><path d="M-2.423,0.795 a0.065,0.065 0 1,1 0.13,0 a0.065,0.065 0 1,1 -0.13,0z" fill="rgb(255,255,255)" shaper:cutDepth="0" shaper:pathType="interior" stroke="rgb(0,0,0)" transform="matrix(1,0,0,-1,4.25,1.6552946)" vector-effect="non-scaling-stroke" /><path d="M-2.169,0.795 a0.065,0.065 0 1,1 0.13,0 a0.065,0.065 0 1,1 -0.13,0z" fill="rgb(255,255,255)" shaper:cutDepth="0" shaper:pathType="interior" stroke="rgb(0,0,0)" transform="matrix(1,0,0,-1,4.25,1.6552946)" vector-effect="non-scaling-stroke" /></svg>